<?xml version="1.0" encoding="UTF-8"?>
<svg id="Calque_2" data-name="Calque 2" xmlns="http://www.w3.org/2000/svg" viewBox="0 0 352.56 308.92">
  <defs>
    <style>
      .cls-1 {
        fill: #37424c;
      }
    </style>
  </defs>
  <g id="Calque_1-2" data-name="Calque 1">
    <g>
      <g>
        <g>
          <path class="cls-1" d="M183.13,65.44c-4.98,2.36-22.33-5.46-33.03-17.33-10.69-11.88-11.43-29.7,1.19-39.18,35.55-26.68,36.98,13.83,37.57,25.55,.57,11.79,1,27.75-5.73,30.96Z"/>
          <path class="cls-1" d="M198.37,66.93c-3.25-1.35-9.07-38.06-4.34-51.85,3.03-8.7,19.33-9.22,29.23-2.87,7.22,4.71,13.28,12.86,11.89,27.36,0,0,12.79,3.57,10.46,25.87-2.39,22.33-10.7,27.58-18.07,28.51-7.35,.97-10.67,.97-10.67,.97,0,0-6.44,25.86-28.03,26.59-21.64,.73-36.26-20.07-33.92-22.48,2.38-2.36,43.09-9.75,46.06-13.86,4.25-5.75-9.54-4.47,13.29-22.55,9.15-7.2,14.95-15.75,14.7-17.62-.24-1.87-14.7,10.95-18.75,14.72-4.04,3.82-9.54,8.17-11.84,7.19Z"/>
          <path class="cls-1" d="M175.76,78.04c-.12-7.31-23.32-23.22-29.47-25.42-9.71-3.49-25.64,1.79-23.49,23.25,1.39,14.25,13.65,21.92,26.64,20.31,13.2-1.63,26.4-11.05,26.32-18.13Z"/>
          <path class="cls-1" d="M182.4,76.86c0-3.53,2.88-6.41,6.44-6.41s6.43,2.88,6.43,6.41-2.89,6.41-6.43,6.41-6.44-2.84-6.44-6.41Z"/>
        </g>
        <g>
          <path class="cls-1" d="M153.13,211.83l-26.12-59.91h-26.03l41.18,94.6c1.89,4.34,6.19,7.13,10.97,7.13s9.03-2.8,10.96-7.13l41.18-94.6h-26.03l-26.11,59.91Z"/>
          <path class="cls-1" d="M229.5,204.93v-3.85c1.14-14.6,13.18-26.13,28.08-26.13,.09,0,.13,.02,.17,.02v-23.88h-.17c-26.71,0-48.74,20.16-51.81,46.08h-.19v1.65c-.11,1.49-.11,7.48,0,8.97v44.42h23.87v-47.28h.05Z"/>
          <g>
            <path class="cls-1" d="M280.04,152.38v99.63h23.89v-99.63c-3.55,2-7.56,3.21-11.93,3.21s-8.39-1.21-11.96-3.21Z"/>
            <path class="cls-1" d="M292,119.46c-6.52,0-11.76,5.26-11.76,11.73,0,3.33,1.38,6.33,3.6,8.47,2.13,2.04,4.96,3.29,8.16,3.29s6.03-1.25,8.18-3.29c2.18-2.14,3.61-5.14,3.61-8.47,0-6.47-5.3-11.73-11.79-11.73Z"/>
          </g>
          <path class="cls-1" d="M101.76,197.83v-.66h0c-2.56-25.73-24.34-45.89-50.75-45.89-28.13,0-51.01,22.89-51.01,50.99s22.87,51.06,51.01,51.06c4.82,0,9.51-.71,13.97-2.01v-25.84c-4.09,2.5-8.84,3.97-13.97,3.97-14.98,0-27.14-12.2-27.14-27.18s12.16-27.14,27.14-27.14,25.75,11.03,26.92,24.96c0,0,.23,4.72,.23,4.9l.08,47.22h23.53v-45.45c.16-1.47,.16-7.48,0-8.93Z"/>
          <path class="cls-1" d="M328.68,122.27V251.74c9.19-2.3,17.41-7.03,23.88-13.52V122.27h-23.88Z"/>
        </g>
      </g>
      <g>
        <path class="cls-1" d="M29.49,296.93v-.07c0-6.43,4.81-11.75,11.49-11.75,4.12,0,6.59,1.46,8.86,3.6l-1.75,1.88c-1.92-1.82-4.06-3.12-7.14-3.12-5.03,0-8.8,4.09-8.8,9.32v.06c0,5.26,3.8,9.38,8.8,9.38,3.12,0,5.16-1.2,7.34-3.28l1.69,1.66c-2.37,2.4-4.97,3.99-9.09,3.99-6.56,0-11.4-5.16-11.4-11.69Z"/>
        <path class="cls-1" d="M52.81,296.93v-.07c0-6.27,4.71-11.75,11.62-11.75s11.56,5.42,11.56,11.69v.06c0,6.27-4.71,11.75-11.62,11.75s-11.56-5.42-11.56-11.69Zm20.52,0v-.07c0-5.16-3.77-9.38-8.96-9.38s-8.9,4.16-8.9,9.32v.06c0,5.16,3.77,9.38,8.96,9.38s8.9-4.16,8.9-9.32Z"/>
        <path class="cls-1" d="M79.76,304.92l1.59-1.88c2.37,2.14,4.64,3.21,7.79,3.21s5.07-1.62,5.07-3.86v-.07c0-2.11-1.14-3.31-5.91-4.32-5.23-1.14-7.63-2.82-7.63-6.56v-.06c0-3.57,3.15-6.2,7.47-6.2,3.31,0,5.68,.94,7.99,2.79l-1.49,1.98c-2.11-1.72-4.22-2.47-6.56-2.47-2.95,0-4.84,1.62-4.84,3.67v.06c0,2.14,1.17,3.34,6.17,4.42,5.07,1.1,7.4,2.95,7.4,6.43v.07c0,3.9-3.25,6.43-7.76,6.43-3.6,0-6.56-1.2-9.29-3.64Z"/>
        <path class="cls-1" d="M102.03,285.5h2.6l8.28,12.4,8.28-12.4h2.6v22.73h-2.57v-18.41l-8.28,12.18h-.13l-8.28-12.14v18.38h-2.5v-22.73Z"/>
        <path class="cls-1" d="M130.22,285.5h16.43v2.34h-13.86v7.76h12.4v2.34h-12.4v7.96h14.03v2.34h-16.59v-22.73Zm10.46-6.2l2.57,1.17-3.73,3.02h-2.08l3.25-4.19Z"/>
        <path class="cls-1" d="M157.98,287.88h-7.63v-2.37h17.86v2.37h-7.63v20.36h-2.6v-20.36Z"/>
        <path class="cls-1" d="M173.24,285.5h2.57v22.73h-2.57v-22.73Z"/>
        <path class="cls-1" d="M203.18,308.92l-3.02-2.7c-1.92,1.49-4.35,2.4-7.14,2.4-6.92,0-11.56-5.42-11.56-11.69v-.07c0-6.27,4.71-11.75,11.62-11.75s11.56,5.42,11.56,11.69v.06c0,2.82-1.01,5.52-2.7,7.6l2.99,2.53-1.75,1.92Zm-4.84-4.35l-4.25-3.64,1.72-1.92,4.25,3.86c1.23-1.62,1.92-3.67,1.92-5.94v-.07c0-5.16-3.77-9.38-8.96-9.38s-8.9,4.16-8.9,9.32v.06c0,5.16,3.77,9.38,8.96,9.38,2.01,0,3.83-.62,5.26-1.69Z"/>
        <path class="cls-1" d="M209.71,298.72v-13.22h2.57v13.05c0,4.9,2.63,7.66,6.95,7.66s6.85-2.53,6.85-7.5v-13.22h2.57v13.02c0,6.62-3.8,10.07-9.48,10.07s-9.45-3.44-9.45-9.87Z"/>
        <path class="cls-1" d="M234.71,285.5h16.43v2.34h-13.86v7.76h12.4v2.34h-12.4v7.96h14.03v2.34h-16.59v-22.73Z"/>
        <path class="cls-1" d="M265.92,285.5h10.2c2.6,0,4.64,.71,5.94,2.01,1.01,1.01,1.53,2.24,1.53,3.77v.06c0,2.73-1.56,4.19-3.25,5.07,2.66,.91,4.51,2.44,4.51,5.52v.06c0,4.06-3.34,6.23-8.41,6.23h-10.52v-22.73Zm13.67,6.43c0-1.79-1.43-2.89-3.99-2.89h-5.75v6.04h5.46c2.57,0,4.29-1.01,4.29-3.08v-.07Zm-3.41,6.53h-6.33v6.23h6.62c2.73,0,4.38-1.07,4.38-3.12v-.07c0-1.92-1.53-3.05-4.68-3.05Z"/>
        <path class="cls-1" d="M289.59,285.5h3.99v22.73h-3.99v-22.73Z"/>
        <path class="cls-1" d="M299.3,296.93v-.07c0-6.4,4.94-11.75,11.92-11.75s11.85,5.29,11.85,11.69v.06c0,6.4-4.94,11.75-11.92,11.75s-11.85-5.29-11.85-11.69Zm19.58,0v-.07c0-4.42-3.21-8.09-7.73-8.09s-7.66,3.6-7.66,8.02v.06c0,4.42,3.21,8.05,7.73,8.05s7.66-3.57,7.66-7.99Z"/>
      </g>
    </g>
  </g>
</svg>